<svg width="48" height="48" viewBox="0 0 48 48" fill="none" xmlns="http://www.w3.org/2000/svg">
<path d="M40.5 15C38.55 15 36.9 16.2375 36.2625 18H31.5V12H28.5V7.5H25.5V12H22.5V7.5H19.5V12H16.5V18H9V14.7375C10.7625 14.1 12 12.45 12 10.5C12 8.025 9.975 6 7.5 6C5.025 6 3 8.025 3 10.5C3 12.45 4.2375 14.1 6 14.7375V21H16.5V24H6V30.2625C4.2375 30.9 3 32.55 3 34.5C3 36.975 5.025 39 7.5 39C9.975 39 12 36.975 12 34.5C12 32.55 10.7625 30.9 9 30.2625V27H16.5V33H19.5V37.5H22.5V33H25.5V37.5H28.5V33H31.5V27H34.5V33.2625C32.7375 33.9 31.5 35.55 31.5 37.5C31.5 39.975 33.525 42 36 42C38.475 42 40.5 39.975 40.5 37.5C40.5 35.55 39.2625 33.9 37.5 33.2625V24H31.5V21H36.2625C36.9 22.7625 38.55 24 40.5 24C42.975 24 45 21.975 45 19.5C45 17.025 42.975 15 40.5 15ZM7.5 12C6.675 12 6 11.325 6 10.5C6 9.675 6.675 9 7.5 9C8.325 9 9 9.675 9 10.5C9 11.325 8.325 12 7.5 12ZM7.5 36C6.675 36 6 35.325 6 34.5C6 33.675 6.675 33 7.5 33C8.325 33 9 33.675 9 34.5C9 35.325 8.325 36 7.5 36ZM28.5 30H19.5V15H28.5V30ZM36 36C36.825 36 37.5 36.675 37.5 37.5C37.5 38.325 36.825 39 36 39C35.175 39 34.5 38.325 34.5 37.5C34.5 36.675 35.175 36 36 36ZM40.5 21C39.675 21 39 20.325 39 19.5C39 18.675 39.675 18 40.5 18C41.325 18 42 18.675 42 19.5C42 20.325 41.325 21 40.5 21Z" fill="#0BB3DE"/>
<path d="M24 24H21V27H24V24Z" fill="#0BB3DE"/>
</svg>
