<svg width="16" height="17" viewBox="0 0 16 17" fill="none" xmlns="http://www.w3.org/2000/svg">
<path d="M7.99997 3.40002C11.2415 3.40002 14.0026 5.41903 14.9726 8.23743L14.9931 8.31799C15.0022 8.37231 15.0022 8.42774 14.9931 8.48206L14.9726 8.56262C14.0026 11.381 11.2415 13.4 7.99997 13.4C4.85984 13.4 2.17051 11.5054 1.12351 8.82483L1.02732 8.56262C0.991057 8.45722 0.991057 8.34283 1.02732 8.23743L1.12351 7.97522C2.17051 5.2946 4.85984 3.40002 7.99997 3.40002ZM7.99997 4.40002C5.23968 4.40002 2.90949 6.07844 2.0322 8.40002C2.90949 10.7216 5.23968 12.4 7.99997 12.4C10.7602 12.4 13.0899 10.7215 13.9673 8.40002C13.0899 6.07852 10.7602 4.40002 7.99997 4.40002Z" fill="white"/>
<path d="M10 8.40002C10 7.29545 9.10457 6.40002 8 6.40002C6.89543 6.40002 6 7.29545 6 8.40002C6 9.50459 6.89543 10.4 8 10.4C9.10457 10.4 10 9.50459 10 8.40002ZM11 8.40002C11 10.0569 9.65685 11.4 8 11.4C6.34315 11.4 5 10.0569 5 8.40002C5 6.74317 6.34315 5.40002 8 5.40002C9.65685 5.40002 11 6.74317 11 8.40002Z" fill="white"/>
</svg>
