<svg width="48" height="48" viewBox="0 0 48 48" fill="none" xmlns="http://www.w3.org/2000/svg">
<path d="M33 34.5H15C12.2152 34.5 9.54451 33.3938 7.57538 31.4246C5.60625 29.4555 4.5 26.7848 4.5 24C4.5 21.2152 5.60625 18.5445 7.57538 16.5754C9.54451 14.6062 12.2152 13.5 15 13.5H33C35.7848 13.5 38.4555 14.6062 40.4246 16.5754C42.3938 18.5445 43.5 21.2152 43.5 24C43.5 26.7848 42.3938 29.4555 40.4246 31.4246C38.4555 33.3938 35.7848 34.5 33 34.5ZM15 16.5C13.0109 16.5 11.1032 17.2902 9.6967 18.6967C8.29018 20.1032 7.5 22.0109 7.5 24C7.5 25.9891 8.29018 27.8968 9.6967 29.3033C11.1032 30.7098 13.0109 31.5 15 31.5H33C34.9891 31.5 36.8968 30.7098 38.3033 29.3033C39.7098 27.8968 40.5 25.9891 40.5 24C40.5 22.0109 39.7098 20.1032 38.3033 18.6967C36.8968 17.2902 34.9891 16.5 33 16.5H15Z" fill="#8B5CF6"/>
<path d="M18 25.5H12C11.6022 25.5 11.2206 25.342 10.9393 25.0607C10.658 24.7794 10.5 24.3978 10.5 24C10.5 23.6022 10.658 23.2206 10.9393 22.9393C11.2206 22.658 11.6022 22.5 12 22.5H18C18.3978 22.5 18.7794 22.658 19.0607 22.9393C19.342 23.2206 19.5 23.6022 19.5 24C19.5 24.3978 19.342 24.7794 19.0607 25.0607C18.7794 25.342 18.3978 25.5 18 25.5Z" fill="#8B5CF6"/>
<path d="M15 28.5C14.6022 28.5 14.2206 28.342 13.9393 28.0607C13.658 27.7794 13.5 27.3978 13.5 27V21C13.5 20.6022 13.658 20.2206 13.9393 19.9393C14.2206 19.658 14.6022 19.5 15 19.5C15.3978 19.5 15.7794 19.658 16.0607 19.9393C16.342 20.2206 16.5 20.6022 16.5 21V27C16.5 27.3978 16.342 27.7794 16.0607 28.0607C15.7794 28.342 15.3978 28.5 15 28.5Z" fill="#8B5CF6"/>
<path d="M33 22.5C32.7021 22.5017 32.4104 22.4147 32.1621 22.25C31.9138 22.0853 31.7202 21.8504 31.6059 21.5752C31.4917 21.3 31.462 20.9971 31.5206 20.7049C31.5792 20.4128 31.7235 20.1448 31.935 19.935C32.0777 19.7984 32.2459 19.6914 32.43 19.62C32.7032 19.5051 33.0042 19.4737 33.2952 19.5298C33.5862 19.5858 33.8541 19.7268 34.065 19.935C34.2056 20.0744 34.3172 20.2403 34.3933 20.4231C34.4695 20.6059 34.5087 20.8019 34.5087 21C34.5087 21.198 34.4695 21.394 34.3933 21.5768C34.3172 21.7596 34.2056 21.9255 34.065 22.065L33.84 22.245C33.7564 22.3017 33.6656 22.3471 33.57 22.38C33.4807 22.4256 33.3843 22.4561 33.285 22.47L33 22.5Z" fill="#8B5CF6"/>
<path d="M33 28.5001C32.804 28.4977 32.6103 28.4569 32.43 28.3801C32.2459 28.3087 32.0777 28.2016 31.935 28.065C31.7944 27.9256 31.6828 27.7597 31.6067 27.5769C31.5305 27.3941 31.4913 27.1981 31.4913 27.0001C31.4913 26.802 31.5305 26.606 31.6067 26.4232C31.6828 26.2404 31.7944 26.0745 31.935 25.9351C32.1096 25.7621 32.3241 25.6347 32.5595 25.5641C32.7949 25.4935 33.044 25.4818 33.285 25.5301C33.3844 25.544 33.4807 25.5744 33.57 25.6201C33.6656 25.6529 33.7564 25.6983 33.84 25.7551L34.065 25.9351C34.2056 26.0745 34.3172 26.2404 34.3933 26.4232C34.4695 26.606 34.5087 26.802 34.5087 27.0001C34.5087 27.1981 34.4695 27.3941 34.3933 27.5769C34.3172 27.7597 34.2056 27.9256 34.065 28.065C33.9248 28.2041 33.7586 28.3141 33.5759 28.3887C33.3931 28.4634 33.1974 28.5012 33 28.5001Z" fill="#8B5CF6"/>
<path d="M30 25.5C29.6531 25.498 29.3176 25.3758 29.0506 25.1542C28.7837 24.9326 28.6018 24.6254 28.5359 24.2848C28.4701 23.9441 28.5243 23.5912 28.6894 23.2861C28.8545 22.981 29.1203 22.7425 29.4415 22.6114C29.7626 22.4802 30.1194 22.4644 30.4509 22.5667C30.7824 22.6689 31.0682 22.8829 31.2596 23.1723C31.4511 23.4616 31.5363 23.8083 31.5008 24.1534C31.4653 24.4985 31.3113 24.8207 31.065 25.065C30.9248 25.204 30.7586 25.314 30.5759 25.3886C30.3931 25.4633 30.1974 25.5011 30 25.5Z" fill="#8B5CF6"/>
<path d="M36 25.5H35.7L35.43 25.41C35.3344 25.3771 35.2436 25.3317 35.16 25.275L34.935 25.095C34.6815 24.8574 34.5183 24.5392 34.4733 24.1947C34.4284 23.8502 34.5044 23.5007 34.6884 23.206C34.8724 22.9113 35.153 22.6896 35.4823 22.5788C35.8116 22.468 36.1692 22.4749 36.4939 22.5984C36.8186 22.7219 37.0905 22.9543 37.2629 23.2559C37.4354 23.5576 37.4978 23.9097 37.4395 24.2522C37.3812 24.5947 37.2058 24.9064 36.9432 25.1339C36.6807 25.3615 36.3473 25.4909 36 25.5Z" fill="#8B5CF6"/>
</svg>
