<svg width="48" height="48" viewBox="0 0 48 48" fill="none" xmlns="http://www.w3.org/2000/svg">
<path d="M30 37.5V34.5C30 33.3065 29.5256 32.1623 28.6816 31.3184C27.9433 30.5801 26.9753 30.1244 25.9453 30.022L25.5 30H13.5C12.3065 30 11.1623 30.4744 10.3184 31.3184C9.47445 32.1623 9 33.3065 9 34.5V37.5C9 38.3284 8.32843 39 7.5 39C6.67157 39 6 38.3284 6 37.5V34.5C6 32.5109 6.79074 30.6038 8.19727 29.1973C9.60379 27.7907 11.5109 27 13.5 27H25.5L25.8721 27.0088C27.7257 27.1008 29.4842 27.8787 30.8027 29.1973C32.2093 30.6038 33 32.5109 33 34.5V37.5C33 38.3284 32.3284 39 31.5 39C30.6716 39 30 38.3284 30 37.5Z" fill="#D946EF"/>
<path d="M24 16.5C24 14.0147 21.9853 12 19.5 12C17.0147 12 15 14.0147 15 16.5C15 18.9853 17.0147 21 19.5 21C21.9853 21 24 18.9853 24 16.5ZM27 16.5C27 20.6421 23.6421 24 19.5 24C15.3579 24 12 20.6421 12 16.5C12 12.3579 15.3579 9 19.5 9C23.6421 9 27 12.3579 27 16.5Z" fill="#D946EF"/>
<path d="M39.1999 37.4754V34.4276L39.1848 34.0494C39.1174 33.1709 38.8183 32.3294 38.3194 31.6285C37.8204 30.9274 37.1465 30.4014 36.382 30.1113L36.0498 30.0011L35.913 29.9549C35.2474 29.6871 34.8636 28.9088 35.0448 28.1444C35.2261 27.3804 35.9077 26.901 36.609 27.0173L36.7498 27.0501L37.0287 27.135C38.416 27.5925 39.642 28.5082 40.5329 29.7599C41.4831 31.0947 41.9988 32.7357 42 34.4246V37.4754C41.9999 38.3173 41.3731 39 40.5999 39C39.8268 39 39.2 38.3173 39.1999 37.4754Z" fill="#D946EF"/>
<path d="M32.8051 16.5001C32.8051 15.4753 32.4514 14.4792 31.799 13.6697C31.228 12.9614 30.4567 12.4307 29.5822 12.1389L29.2016 12.0292L29.0456 11.9826C28.2854 11.714 27.8451 10.929 28.0503 10.1573C28.2554 9.38583 29.0329 8.9012 29.8334 9.01706L29.994 9.04861L30.3138 9.13424C31.9008 9.59396 33.3035 10.5195 34.323 11.7843C35.4101 13.1334 36 14.7925 36 16.5001L35.9938 16.8201C35.9249 18.4142 35.3421 19.9512 34.323 21.2158C33.3035 22.4807 31.9008 23.4062 30.3138 23.8659L29.994 23.9516C29.1394 24.1623 28.2691 23.6659 28.0503 22.8428C27.8315 22.0198 28.3469 21.1817 29.2016 20.971L29.5822 20.8613C30.4567 20.5695 31.228 20.0388 31.799 19.3304C32.3698 18.6223 32.7112 17.7711 32.788 16.8832L32.8051 16.5001Z" fill="#D946EF"/>
</svg>
