<svg width="17" height="21" viewBox="0 0 17 21" fill="none" xmlns="http://www.w3.org/2000/svg">
<path d="M9.99997 0.400024C10.9468 0.400024 11.5801 1.5361 12.8467 3.80823L13.1748 4.39612C13.5348 5.04178 13.7144 5.36474 13.9951 5.57776C14.2757 5.79078 14.6252 5.8698 15.3242 6.02795L15.9609 6.17249C16.3356 6.25727 16.6813 6.33752 17 6.41272V12.6744C16.7092 13.023 16.547 13.2509 16.4638 13.5182C16.3569 13.8627 16.3929 14.2343 16.4648 14.9772L16.5302 15.6549C16.7837 18.2708 16.9105 19.5783 16.1445 20.1598C15.3784 20.7412 14.2276 20.2112 11.9248 19.151L11.3281 18.8766C10.674 18.5754 10.3468 18.4244 9.99997 18.4244C9.65315 18.4244 9.32597 18.5754 8.67185 18.8766L8.07615 19.151C5.77312 20.2113 4.62147 20.7413 3.85544 20.1598C3.08948 19.5783 3.21621 18.2708 3.4697 15.6549L3.53513 14.9772C3.60712 14.2343 3.64309 13.8627 3.53611 13.5182C3.42894 13.1735 3.19028 12.8946 2.71384 12.3375L2.28025 11.8297C0.60345 9.86897 -0.234966 8.88873 0.0575911 7.94788C0.35017 7.00704 1.57972 6.72893 4.03904 6.17249L4.67576 6.02795C5.37471 5.8698 5.72425 5.79078 6.00486 5.57776C6.28547 5.36474 6.46523 5.04182 6.82517 4.39612L7.15329 3.80823C8.41985 1.53612 9.05311 0.400037 9.99997 0.400024Z" fill="white"/>
</svg>
