<svg width="11" height="11" viewBox="0 0 11 11" fill="none" xmlns="http://www.w3.org/2000/svg">
<path d="M4.384 2.21404C4.99621 1.11578 5.30231 0.56665 5.75998 0.56665C6.21765 0.56665 6.52374 1.11578 7.13593 2.21403L7.29432 2.49816C7.46832 2.81025 7.55527 2.9663 7.69094 3.06926C7.82657 3.17222 7.99545 3.21044 8.3333 3.28688L8.64089 3.35647C9.8297 3.62546 10.4242 3.75995 10.5656 4.21473C10.707 4.66948 10.3018 5.14339 9.49127 6.09111L9.2816 6.33631C9.05129 6.60562 8.93611 6.74028 8.8843 6.90688C8.83253 7.07349 8.84993 7.25314 8.88473 7.6125L8.91644 7.93962C9.03896 9.20412 9.10025 9.83637 8.73002 10.1174C8.35973 10.3985 7.80318 10.1422 6.69006 9.62974L6.40209 9.49712C6.08579 9.35149 5.92765 9.27865 5.75998 9.27865C5.59231 9.27865 5.43416 9.35149 5.11787 9.49712L4.8299 9.62974C3.71677 10.1422 3.16021 10.3985 2.78996 10.1174C2.41971 9.83637 2.48098 9.20412 2.60352 7.93962L2.63521 7.6125C2.67004 7.25314 2.68745 7.07349 2.63564 6.90688C2.58383 6.74028 2.46868 6.60562 2.23837 6.33631L2.02869 6.09111C1.21821 5.14339 0.812966 4.66948 0.95439 4.21473C1.09581 3.75995 1.69024 3.62546 2.87908 3.35647L3.18665 3.28688C3.52448 3.21044 3.6934 3.17222 3.82903 3.06926C3.96466 2.9663 4.05165 2.81026 4.22562 2.49816L4.384 2.21404Z" fill="url(#paint0_radial_3_67)"/>
<defs>
<radialGradient id="paint0_radial_3_67" cx="0" cy="0" r="1" gradientUnits="userSpaceOnUse" gradientTransform="translate(5.75998 5.39998) rotate(90) scale(4.83333 4.83335)">
<stop stop-color="#FFE986"/>
<stop offset="1" stop-color="#FFE015"/>
</radialGradient>
</defs>
</svg>
