<svg width="10" height="9" viewBox="0 0 10 9" fill="none" xmlns="http://www.w3.org/2000/svg">
<path d="M3.8138 1.6535C4.34157 0.706726 4.60544 0.233337 4.99999 0.233337C5.39453 0.233337 5.6584 0.706721 6.18615 1.65349L6.3227 1.89844C6.4727 2.16748 6.54766 2.302 6.66461 2.39076C6.78153 2.47952 6.92711 2.51247 7.21837 2.57836L7.48353 2.63835C8.50837 2.87024 9.02083 2.98618 9.14274 3.37823C9.26466 3.77026 8.91533 4.1788 8.21662 4.9958L8.03587 5.20718C7.83732 5.43934 7.73803 5.55543 7.69337 5.69905C7.64874 5.84268 7.66374 5.99755 7.69374 6.30735L7.72107 6.58935C7.8267 7.67943 7.87953 8.22447 7.56037 8.46677C7.24116 8.70906 6.76136 8.48814 5.80178 8.04635L5.55353 7.93202C5.28086 7.80647 5.14453 7.74368 4.99999 7.74368C4.85544 7.74368 4.71911 7.80647 4.44644 7.93202L4.19819 8.04635C3.2386 8.48814 2.75881 8.70906 2.43963 8.46677C2.12045 8.22447 2.17327 7.67943 2.2789 6.58935L2.30622 6.30735C2.33625 5.99755 2.35125 5.84268 2.30659 5.69905C2.26193 5.55543 2.16266 5.43934 1.96412 5.20718L1.78336 4.9958C1.08467 4.1788 0.735322 3.77026 0.857239 3.37823C0.979156 2.98618 1.49159 2.87024 2.51646 2.63835L2.7816 2.57836C3.07284 2.51247 3.21845 2.47952 3.33538 2.39076C3.4523 2.302 3.52729 2.16748 3.67726 1.89844L3.8138 1.6535Z" fill="url(#paint0_radial_3_2)"/>
<defs>
<radialGradient id="paint0_radial_3_2" cx="0" cy="0" r="1" gradientUnits="userSpaceOnUse" gradientTransform="translate(4.99999 4.4) rotate(90) scale(4.16667 4.16668)">
<stop stop-color="#FFE986"/>
<stop offset="1" stop-color="#FFE015"/>
</radialGradient>
</defs>
</svg>
