<svg width="11" height="11" viewBox="0 0 11 11" fill="none" xmlns="http://www.w3.org/2000/svg">
<path d="M4.34402 2.21404C4.95623 1.11578 5.26233 0.56665 5.72 0.56665C6.17767 0.56665 6.48376 1.11578 7.09595 2.21403L7.25434 2.49816C7.42834 2.81025 7.51529 2.9663 7.65097 3.06926C7.78659 3.17222 7.95547 3.21044 8.29332 3.28688L8.60091 3.35647C9.78972 3.62546 10.3842 3.75995 10.5256 4.21473C10.667 4.66948 10.2618 5.14339 9.45129 6.09111L9.24162 6.33631C9.01131 6.60562 8.89613 6.74028 8.84432 6.90688C8.79255 7.07349 8.80995 7.25314 8.84475 7.6125L8.87646 7.93962C8.99899 9.20412 9.06027 9.83637 8.69004 10.1174C8.31976 10.3985 7.7632 10.1422 6.65008 9.62974L6.36211 9.49712C6.04581 9.35149 5.88767 9.27865 5.72 9.27865C5.55233 9.27865 5.39418 9.35149 5.07789 9.49712L4.78992 9.62974C3.67679 10.1422 3.12023 10.3985 2.74998 10.1174C2.37974 9.83637 2.441 9.20412 2.56354 7.93962L2.59523 7.6125C2.63006 7.25314 2.64747 7.07349 2.59566 6.90688C2.54386 6.74028 2.4287 6.60562 2.19839 6.33631L1.98871 6.09111C1.17823 5.14339 0.772988 4.66948 0.914412 4.21473C1.05584 3.75995 1.65026 3.62546 2.83911 3.35647L3.14668 3.28688C3.48451 3.21044 3.65342 3.17222 3.78905 3.06926C3.92468 2.9663 4.01167 2.81026 4.18564 2.49816L4.34402 2.21404Z" fill="#9A9A9A"/>
</svg>
