<svg width="215" height="80" viewBox="0 0 215 80" fill="none" xmlns="http://www.w3.org/2000/svg">
<path d="M205 30.3797V25.3165H195V30.3797H205ZM190 40.5063V35.443H185V20.2532H190V15.1899H205V10.1266H185V0H210V5.06329H215V40.5063H190Z" fill="#0BB3DE"/>
<path d="M140 40.5063V0H160V5.06329H165V0H175V5.06329H180V40.5063H170V10.1266H165V40.5063H155V10.1266H150V40.5063H140Z" fill="#0BB3DE"/>
<path d="M125 30.3797V10.1266H115V30.3797H125ZM110 40.5063V35.443H105V5.06329H110V0H130V5.06329H135V35.443H130V40.5063H110Z" fill="#0BB3DE"/>
<path d="M70 40.5063V0H95V5.06329H100V40.5063H90V10.1266H80V40.5063H70Z" fill="#0BB3DE"/>
<path d="M55 15.1899V10.1266H45V15.1899H55ZM40 40.5063V35.443H35V5.06329H40V0H60V5.06329H65V25.3165H45V30.3797H65V40.5063H40Z" fill="#0BB3DE"/>
<path d="M20 25.3165V10.1266H10V25.3165H20ZM0 50.6329V40.5063H20V35.443H5V30.3797H0V5.06329H5V0H30V45.5696H25V50.6329H0Z" fill="#0BB3DE"/>
<path d="M195 73.9241V67.8481H207V64.8101H198V61.7722H195V52.6582H198V49.6203H213V55.6962H201V58.7342H210V61.7722H213V70.8861H210V73.9241H195Z" fill="white"/>
<path d="M186 58.7342V55.6962H180V58.7342H186ZM177 73.9241V70.8861H174V52.6582H177V49.6203H189V52.6582H192V64.8101H180V67.8481H192V73.9241H177Z" fill="white"/>
<path d="M147 73.9241V49.6203H159V52.6582H162V49.6203H168V52.6582H171V73.9241H165V55.6962H162V73.9241H156V55.6962H153V73.9241H147Z" fill="white"/>
<path d="M138 67.8481V64.8101H132V67.8481H138ZM129 73.9241V70.8861H126V61.7722H129V58.7342H138V55.6962H126V49.6203H141V52.6582H144V73.9241H129Z" fill="white"/>
<path d="M117 64.8101V55.6962H111V64.8101H117ZM105 80V73.9241H117V70.8861H108V67.8481H105V52.6582H108V49.6203H123V76.962H120V80H105Z" fill="white"/>
</svg>
