<svg width="48" height="48" viewBox="0 0 48 48" fill="none" xmlns="http://www.w3.org/2000/svg">
<path d="M22.3423 12.4886C23.0237 12.059 24.0014 12.2812 24.4457 12.9626L28.4748 19.3173C28.6229 19.5543 28.7118 19.8357 28.7118 20.132C28.7118 20.3838 28.6377 20.6356 28.5192 20.8578C28.3415 21.1985 28.0452 21.4503 27.6897 21.5688C27.586 21.5984 26.5788 21.865 25.7048 22.0872C25.9863 23.8351 26.3121 25.9978 26.3418 26.1607C26.5047 26.7681 26.2381 27.4346 25.6752 27.7901C25.4234 27.9531 25.1419 28.0271 24.8605 28.0271C24.742 28.0271 24.6383 28.0123 24.5198 27.9827C24.1347 27.8938 23.794 27.6568 23.5718 27.3161L19.5427 20.9615C19.2465 20.4875 19.2317 19.895 19.4983 19.4061C19.7057 19.0358 20.0612 18.7692 20.4759 18.6655C20.5204 18.6507 21.735 18.3841 22.5349 18.2063L21.7943 14.4587C21.7646 14.3994 21.735 14.3254 21.7202 14.2661C21.498 13.5995 21.7498 12.8589 22.3423 12.4886Z" fill="#FFE015"/>
<path d="M28.2122 20.1321C28.2122 19.9362 28.1531 19.7456 28.051 19.5823L24.0266 13.2356L23.967 13.1536C23.6452 12.7608 23.0257 12.6484 22.6086 12.9114L22.6077 12.9124C22.2675 13.125 22.0896 13.5316 22.1526 13.9358L22.1946 14.1077L22.2004 14.1262L22.2053 14.1448L22.2415 14.2346L22.2717 14.2952L22.2844 14.3616L23.1204 18.5881L22.6438 18.6946C22.244 18.7834 21.7384 18.8951 21.3303 18.9856C21.1259 19.0309 20.9455 19.0702 20.8137 19.0999C20.7478 19.1147 20.6949 19.1273 20.6575 19.136C20.6015 19.149 20.6108 19.1477 20.634 19.1399L20.6155 19.1457L20.5969 19.1506C20.312 19.2219 20.0729 19.4041 19.9348 19.6506C19.7572 19.9804 19.768 20.3761 19.9651 20.6936L23.9944 27.0481C24.1274 27.2495 24.3192 27.396 24.5364 27.469L24.6321 27.4954L24.6409 27.4973L24.7561 27.5207C24.7914 27.5255 24.825 27.5276 24.8606 27.5276C25.0532 27.5276 25.2388 27.477 25.4036 27.3704L25.4085 27.3674L25.5432 27.2668C25.8331 27.0121 25.9491 26.6273 25.8586 26.2903L25.8538 26.2707L25.8499 26.2502C25.8193 26.082 25.49 23.8976 25.2112 22.1663L25.1389 21.7151L25.5813 21.6028C26.4194 21.3897 27.3727 21.1369 27.5354 21.092C27.765 21.0143 27.9588 20.8517 28.0764 20.6262L28.0784 20.6223L28.136 20.4993C28.1859 20.3748 28.2121 20.2489 28.2122 20.1321ZM23.5803 13.4827L23.6477 13.5891L27.6087 19.8499L27.6223 19.8713L27.6331 19.8938L27.6467 19.9202C27.6512 19.9296 27.6625 19.9548 27.6731 19.9866C27.7032 20.077 27.7005 20.1558 27.7004 20.1614V20.5383L27.3381 20.6428C27.1734 20.6899 26.5306 20.8547 25.9417 21.0051C25.6442 21.0811 25.3561 21.1541 25.1428 21.2082C25.0363 21.2353 24.9484 21.2581 24.887 21.2737C24.8563 21.2815 24.8321 21.2871 24.8157 21.2913C24.8075 21.2933 24.8013 21.2951 24.7971 21.2961C24.795 21.2967 24.7933 21.2978 24.7922 21.2981H24.7903C24.79 21.2971 24.7853 21.2761 24.6682 20.8137L24.5452 20.3284H24.5471L24.5706 20.3225C24.5869 20.3184 24.6105 20.3117 24.6409 20.304C24.7022 20.2884 24.7903 20.2665 24.8967 20.2395C25.1097 20.1854 25.3968 20.1122 25.6936 20.0364C25.9454 19.9721 26.201 19.9035 26.4241 19.8459L24.1731 16.2893L24.8528 19.7112L23.6682 19.9827L23.6643 19.9836H23.6624C23.6611 19.9839 23.6589 19.9841 23.6565 19.9846C23.6515 19.9857 23.6437 19.9874 23.634 19.9895C23.6147 19.9937 23.5861 20.0002 23.5501 20.0081C23.4778 20.0239 23.3745 20.0472 23.2503 20.0745C23.0013 20.1291 22.6681 20.2016 22.3313 20.2756C22.0789 20.3311 21.8243 20.3867 21.6018 20.4358L23.9973 24.2561C23.8986 23.6115 23.7736 22.7834 23.6106 21.719L24.1047 21.6428L24.5989 21.5676C24.9614 23.9354 25.1475 25.1376 25.2385 25.7541C25.2835 26.0585 25.3076 26.2326 25.3176 26.3352C25.3223 26.3827 25.3261 26.4418 25.3225 26.5002C25.3171 26.5891 25.2944 26.662 25.2629 26.7249L24.8655 27.5207L20.012 19.7844L20.6809 19.6174L22.1165 19.2991C22.4535 19.225 22.7873 19.1516 23.0364 19.0969C23.1606 19.0697 23.2639 19.0473 23.3362 19.0315C23.3723 19.0236 23.4008 19.0172 23.4202 19.0129C23.4298 19.0108 23.4376 19.0091 23.4426 19.0081C23.445 19.0075 23.4473 19.0073 23.4485 19.0071L23.6829 18.9534L22.7258 14.1262L22.7122 14.0559L22.718 13.9836L22.7327 13.8206L22.9993 13.845L23.5794 13.4807L23.5803 13.4827ZM29.2122 20.1321C29.2121 20.4782 29.1099 20.8079 28.9612 21.0881L28.9622 21.0891C28.725 21.5435 28.3275 21.8833 27.8479 22.0432L27.8372 22.0461L27.8274 22.0491C27.7341 22.0757 27.0121 22.2648 26.2688 22.4563C26.5308 24.1028 26.8023 25.8979 26.8323 26.0676C27.0348 26.8865 26.6704 27.7534 25.9426 28.2131L25.9417 28.2122C25.6041 28.4293 25.2292 28.5276 24.8606 28.5276C24.6979 28.5276 24.5557 28.5055 24.4075 28.469H24.4045C24.4026 28.4685 24.4006 28.4685 24.3987 28.468C23.8901 28.3482 23.4431 28.0345 23.1526 27.5891L23.1497 27.5842L19.1204 21.2288L19.1184 21.2268C18.7256 20.5983 18.7075 19.8122 19.0598 19.1663L19.0618 19.1614L19.1751 18.9836C19.4507 18.5941 19.8567 18.316 20.3176 18.1916C20.3519 18.1802 20.4087 18.1665 20.4309 18.1614C20.4716 18.1519 20.5274 18.1393 20.594 18.1243C20.7274 18.0942 20.909 18.0544 21.1135 18.009C21.3718 17.9518 21.6668 17.886 21.9495 17.8235L21.3137 14.6077C21.2888 14.5507 21.2656 14.4867 21.2473 14.4231L21.2463 14.4241C20.9544 13.5483 21.2808 12.5648 22.0754 12.0666C22.936 11.5241 24.1161 11.7507 24.7463 12.5266L24.8645 12.6897L24.8684 12.6946L28.8967 19.0491L28.8987 19.052L28.968 19.1711C29.121 19.4561 29.2122 19.785 29.2122 20.1321Z" fill="#FFE015"/>
<path d="M36.8141 16.3103C36.7104 15.7178 36.6068 15.2735 36.4883 14.9328C34.7107 9.64462 29.7929 6.05994 24.2381 6.0155H24.1493C24.1048 6.0155 24.0456 6.0155 24.0011 6.0155C23.9567 6.0155 23.8974 6.0155 23.853 6.0155H23.7493C18.2094 6.07475 13.2915 9.64462 11.514 14.9328C11.3955 15.2883 11.2918 15.7326 11.1881 16.3103C10.803 18.5174 11.04 20.7393 11.914 22.7391C11.9436 22.8131 11.9732 22.8872 12.0028 22.9464C12.699 24.4721 13.7063 26.2349 14.6988 27.9531C15.7653 29.8047 16.8614 31.7304 17.4835 33.2116C17.7502 33.8634 18.3871 34.2782 19.0981 34.2782H28.9486C29.6596 34.2782 30.2817 33.8634 30.5632 33.2116C31.1853 31.7156 32.2814 29.8047 33.348 27.9531C34.3256 26.2497 35.3477 24.4721 36.0291 22.9613C36.0587 22.8872 36.0883 22.8131 36.1179 22.7539C36.9623 20.7393 37.2141 18.5174 36.8141 16.3103ZM34.7107 22.1614C34.6959 22.2058 34.6663 22.2651 34.6367 22.3243C33.9701 23.7908 32.9776 25.5238 32.0148 27.1977C30.9335 29.0937 29.8077 31.049 29.1411 32.634C29.1115 32.7228 29.0226 32.7821 28.919 32.7821H19.0833C18.9796 32.7821 18.8908 32.7228 18.8611 32.634C18.2094 31.049 17.0836 29.0937 15.9875 27.1977C15.0246 25.5238 14.0322 23.776 13.3508 22.3095C13.3212 22.2651 13.3064 22.2058 13.2767 22.1614C12.5213 20.4283 12.3139 18.5026 12.6546 16.5918C12.7435 16.103 12.8324 15.703 12.9212 15.4364C14.4914 10.7556 18.8463 7.58565 23.7493 7.54121H23.853C23.8826 7.54121 23.9271 7.54121 23.9567 7.54121C23.9863 7.54121 24.016 7.54121 24.0456 7.54121C24.0752 7.54121 24.1196 7.54121 24.1493 7.54121H24.2381C29.1412 7.58565 33.4961 10.7556 35.0662 15.4364C35.1551 15.703 35.244 16.0882 35.3329 16.5918C35.6736 18.4878 35.4662 20.4135 34.7107 22.1614Z" fill="#FFE015"/>
<path d="M24.2422 5.5155L24.7813 5.53015C30.3262 5.79568 35.1714 9.45418 36.96 14.7684H36.961C37.0926 15.1468 37.2013 15.6223 37.3067 16.2245H37.3057C37.7221 18.5258 37.4604 20.8445 36.5791 22.9471L36.5723 22.9628L36.5655 22.9774C36.5471 23.0142 36.5252 23.0674 36.4932 23.1473L36.4893 23.1571L36.4844 23.1669C35.7909 24.7047 34.7549 26.5056 33.7813 28.202V28.203C32.7093 30.0642 31.6315 31.9435 31.0245 33.4032L31.0225 33.41C30.663 34.2425 29.8615 34.7782 28.9483 34.7782H19.0977C18.1914 34.778 17.3668 34.2476 17.0205 33.4012V33.4003C16.5648 32.3162 15.8451 30.9802 15.0625 29.5966L14.2657 28.203C13.2756 26.4889 12.2557 24.7054 11.5479 23.1542V23.1532C11.513 23.0813 11.4809 23.0013 11.4561 22.9393L11.292 22.5438C10.5121 20.554 10.3195 18.3785 10.6954 16.2245L10.6963 16.2216L10.7764 15.8026C10.8576 15.4038 10.943 15.0656 11.0401 14.7743V14.7733L11.2227 14.2645C13.205 9.05623 18.1706 5.57511 23.7442 5.5155H24.2422ZM23.2569 6.53113C18.1354 6.78919 13.6449 10.164 11.9883 15.0917C11.8809 15.4141 11.7825 15.8315 11.6807 16.3983C11.3349 18.382 11.5143 20.3701 12.2237 22.1796L12.3721 22.5389L12.375 22.5458L12.378 22.5536L12.4502 22.7225L12.4541 22.7303L12.458 22.7391C13.1426 24.2391 14.1371 25.9808 15.1319 27.703V27.704L15.9297 29.0985C16.5889 30.2639 17.2173 31.4189 17.6846 32.4296L17.9444 33.0184L18.0284 33.1864C18.2466 33.5494 18.6469 33.778 19.0977 33.7782H28.9483C29.4571 33.7782 29.9011 33.4846 30.1045 33.0135C30.7421 31.4824 31.8548 29.5431 32.9141 27.704L33.6495 26.4178C34.3785 25.1334 35.0714 23.8686 35.5733 22.7557C35.5962 22.6983 35.6258 22.6268 35.6573 22.5604L35.8018 22.1971C36.4917 20.3696 36.6811 18.3791 36.3223 16.3993L36.3213 16.3964C36.2194 15.8137 36.1211 15.3996 36.0157 15.0966L36.0147 15.0917C34.3579 10.163 29.8663 6.77477 24.7325 6.52917L24.2344 6.5155H23.7549L23.2569 6.53113ZM24.2422 7.04089L24.7207 7.05554C29.4825 7.2886 33.6746 10.3415 35.378 14.8241L35.5401 15.2772L35.5411 15.2782L35.6153 15.5253C35.6882 15.7924 35.7576 16.1206 35.8252 16.5038L35.8858 16.8768C36.1535 18.7452 35.9158 20.6333 35.17 22.3593L35.169 22.3583C35.1403 22.4327 35.1036 22.5086 35.084 22.5477C34.4057 24.0366 33.4043 25.7851 32.4483 27.4471C31.3608 29.354 30.2535 31.2779 29.6016 32.828L29.5997 32.827C29.4828 33.1244 29.1961 33.2821 28.919 33.2821H19.083C18.8046 33.282 18.5151 33.1233 18.3995 32.8231L18.3985 32.8241C17.7622 31.2769 16.6564 29.3536 15.5547 27.4481L15.5538 27.4471C14.5929 25.7767 13.5896 24.0099 12.8975 22.5204H12.8965C12.8908 22.5095 12.8852 22.4999 12.8809 22.4911C12.8694 22.4672 12.8593 22.4437 12.8545 22.4325C12.8523 22.4272 12.85 22.4237 12.8487 22.4208L12.836 22.4022L12.8184 22.3612C12.0216 20.5332 11.805 18.5068 12.1622 16.5038L12.1631 16.5028L12.2305 16.1464C12.2994 15.8038 12.3716 15.5052 12.4473 15.2782V15.2772L12.6094 14.8241C14.3695 10.1921 18.7876 7.08583 23.7452 7.04089H24.2422ZM23.3155 8.05359C18.8073 8.27447 14.8513 11.2557 13.3955 15.5956C13.3187 15.8263 13.2347 16.1964 13.1465 16.6815C12.8233 18.4964 13.0207 20.3176 13.7315 21.953C13.7368 21.9632 13.7431 21.972 13.7471 21.9803C13.7587 22.0043 13.7687 22.0278 13.7735 22.0389C13.775 22.0426 13.7764 22.0454 13.7774 22.0477L13.7881 22.0643L13.8047 22.0985C14.4752 23.5415 15.4555 25.2704 16.42 26.9471L17.2403 28.3739C18.0178 29.7414 18.7523 31.102 19.253 32.2821H28.75C29.4375 30.6928 30.5402 28.7735 31.5801 26.9501L31.5811 26.9481L32.3028 25.6874C33.0165 24.4301 33.6906 23.1974 34.1817 22.1171L34.1856 22.1093L34.1895 22.1005L34.2266 22.0262C34.2326 22.0133 34.2352 22.0056 34.2364 22.0028L34.2432 21.9833L34.252 21.9628C34.967 20.3084 35.1647 18.4829 34.8409 16.6805V16.6786C34.7535 16.1836 34.669 15.8274 34.5918 15.5956L34.4434 15.1796C32.8804 11.066 29.0347 8.26728 24.6719 8.05359L24.2334 8.04089H23.7539L23.3155 8.05359Z" fill="#FFE015"/>
<path d="M29.3928 35.8186C28.978 35.7445 28.5929 36.0112 28.5188 36.4111L28.1041 38.5886H27.2746C27.0079 38.5886 26.7561 38.7367 26.6228 38.9589C26.0747 39.8921 25.0675 40.455 24.0009 40.455C22.9344 40.455 21.9272 39.8773 21.3791 38.9589C21.2458 38.7367 20.994 38.5886 20.7273 38.5886H19.8978L19.4831 36.4111C19.409 36.0112 19.0239 35.7297 18.6091 35.8186C18.1944 35.8926 17.9277 36.2926 18.0166 36.6925L18.4758 39.1366C18.5795 39.6995 19.0683 40.0995 19.6312 40.0995H20.3274C21.1717 41.2697 22.5493 41.9659 24.0009 41.9659C25.4526 41.9659 26.8302 41.2549 27.6745 40.0995H28.3707C28.9336 40.0995 29.4224 39.6995 29.5261 39.1366L29.9853 36.6925C30.0742 36.2926 29.8075 35.8926 29.3928 35.8186Z" fill="#FFE015"/>
<path d="M18.521 35.3275C19.2216 35.1869 19.8538 35.6656 19.9751 36.3197L20.312 38.0882H20.7271C21.118 38.0882 21.483 38.2756 21.7163 38.5697L21.8081 38.7015L21.8989 38.8431C22.3731 39.5299 23.1678 39.9553 24.0005 39.9554C24.8927 39.9554 25.7351 39.4832 26.1919 38.7054L26.1939 38.7015L26.2857 38.5697C26.519 38.2756 26.884 38.0882 27.2749 38.0882H27.69L28.0269 36.3197L28.0571 36.1957C28.2343 35.5909 28.8444 35.2129 29.481 35.3265C30.1644 35.4487 30.6156 36.1068 30.4751 36.7836L30.4771 36.7845L30.0171 39.2259L30.0181 39.2269C29.8703 40.0289 29.1728 40.599 28.3706 40.599H27.9194C26.9736 41.7605 25.5254 42.4662 24.0005 42.4662C22.4783 42.466 21.0284 41.7755 20.0806 40.599H19.6314C18.8292 40.599 18.1316 40.0289 17.9839 39.2269L17.9849 39.2259L17.5249 36.7845L17.5269 36.7836C17.3875 36.1123 17.8303 35.4603 18.5044 35.3304C18.5086 35.3295 18.5129 35.3284 18.5171 35.3275C18.5184 35.3273 18.5197 35.3277 18.521 35.3275ZM18.7144 36.307L18.6968 36.3109C18.5744 36.3329 18.4991 36.4357 18.4995 36.5394L18.5044 36.5843L18.5083 36.6L18.9673 39.0443V39.0463L18.9995 39.1625C19.0975 39.4235 19.3481 39.599 19.6314 39.599H20.5835L20.7329 39.807C21.4817 40.8447 22.7071 41.466 24.0005 41.4662C25.2911 41.4662 26.52 40.8318 27.271 39.8041L27.4204 39.599H28.3706C28.6942 39.599 28.975 39.3699 29.0347 39.0463V39.0443L29.4937 36.6L29.4976 36.5843C29.5236 36.4674 29.4452 36.3361 29.3052 36.3109C29.1548 36.2841 29.0331 36.3788 29.0103 36.5023V36.5043L28.5181 39.0882H27.2749C27.1883 39.0882 27.0965 39.1408 27.0513 39.2162C26.4114 40.3023 25.2398 40.9554 24.0005 40.9554C22.756 40.9553 21.5869 40.2828 20.9497 39.2152C20.9042 39.1407 20.8131 39.0882 20.7271 39.0882H19.4839L18.9917 36.5043V36.5023C18.9657 36.362 18.8365 36.2812 18.7144 36.307Z" fill="#FFE015"/>
</svg>
