<svg width="20" height="24" viewBox="0 0 20 24" fill="none" xmlns="http://www.w3.org/2000/svg">
<path d="M11.9597 0.00012207C13.0581 0.00012207 13.7932 1.31841 15.2624 3.95422L15.6423 4.63586C16.0598 5.38475 16.2689 5.75889 16.5944 6.00598C16.9199 6.25308 17.3256 6.34499 18.1364 6.52844L18.8737 6.69543C19.2311 6.77629 19.5663 6.85303 19.8796 6.9259V14.4904C19.6664 14.7638 19.5338 14.9756 19.4587 15.2169C19.3345 15.6167 19.3762 16.048 19.4597 16.9103L19.5359 17.6954C19.8299 20.7297 19.9768 22.2474 19.0886 22.922C18.1999 23.5965 16.8636 22.981 14.1921 21.7511L13.5007 21.4327C12.7419 21.0834 12.362 20.9093 11.9597 20.9093C11.5574 20.9094 11.1776 21.0833 10.4187 21.4327L9.72824 21.7511C7.05673 22.981 5.72035 23.5965 4.83175 22.922C3.9433 22.2474 4.09043 20.7299 4.38449 17.6954L4.46066 16.9103C4.54422 16.048 4.58586 15.6167 4.46164 15.2169C4.33731 14.8171 4.06126 14.4932 3.50851 13.8468L3.0046 13.2589C1.05949 10.9844 0.0870658 9.84641 0.426479 8.755C0.766083 7.66385 2.19283 7.34091 5.04562 6.69543L5.7839 6.52844C6.5947 6.34499 7.00039 6.25308 7.32589 6.00598C7.65125 5.75888 7.86062 5.38469 8.27804 4.63586L8.65792 3.95422C10.1271 1.31868 10.8615 0.00039102 11.9597 0.00012207Z" fill="white"/>
</svg>
